PathFileType	4	(X/Y/Z)	C:/Users/beibeiliu/ov580/test_trc/User2\sequence.23_training_dense_left.trc
DataRate	CameraRate	NumFrames	NumMarkers	Units	OrigDataRate	OrigDataStartFrame	OrigNumFrames
120	120	17	19	mm	120	97	257
Frame#	Time	ThumbCMC			ThumbMCP			ThumbIP			ThumbTip			IndexMCP			IndexPIP			IndexTip			MiddleMCP			MiddlePIP			MiddleTip			RingMCP			RingPIP			RingTip			PinkyMCP			PinkyPIP			PinkyTip			BackHand1			BackHand2			BackHand3	
		X0	Y0	Z0	X1	Y1	Z1	X2	Y2	Z2	X3	Y3	Z3	X4	Y4	Z4	X5	Y5	Z5	X6	Y6	Z6	X7	Y7	Z7	X8	Y8	Z8	X9	Y9	Z9	X10	Y10	Z10	X11	Y11	Z11	X12	Y12	Z12	X13	Y13	Z13	X14	Y14	Z14	X15	Y15	Z15	X16	Y16	Z16	X17	Y17	Z17	X18	Y18	Z18	
96	0.8	-199.747	-55.2665	52.7074	-174.054	-53.1105	25.7338	-143.776	-62.9034	1.76831	-123	-69.7789	-5.24746	-173.293	-109.962	-1.59315	-161.255	-115.847	-26.593	-143.899	-125.106	-48.3222	-142.133	-117.1	15.7231	-116.013	-116.072	-5.22738	-92.7208	-113.444	-22.5657	-123.343	-96.5345	27.0533	-114.118	-65.3899	24.255	-134.206	-43.402	42.987	-116.203	-87.4007	49.2462	-127.654	-56.1501	49.8146	-154.093	-58.5756	66.3142	-165.172	-112.738	75.2133	-184.05	-102.258	102.133	-204.732	-92.8433	66.5978	
97	0.808333	-201.905	-54.6632	54.6198	-177.651	-51.1154	25.2446	-149.826	-61.4024	6.53933	-125.273	-71.7021	-7.17497	-179.121	-109.206	0.163587	-164.098	-115.558	-27.667	-149.311	-122.949	-50.2311	-143.765	-116.962	15.5648	-120.008	-115.019	-9.47201	-97.3983	-111.725	-28.6067	-126.036	-96.0398	26.4804	-114.992	-65.6718	24.6176	-136.158	-41.8872	42.3416	-118.228	-87.6174	48.2483	-129.782	-55.0884	46.4391	-157.437	-57.1033	64.7926	-169.567	-111.776	73.5726	-185.063	-97.1468	105.515	-202.688	-95.4867	66.9041	
98	0.816667	-208.453	-52.6784	53.2901	-183.69	-48.011	21.8619	-153.885	-63.1049	0.891374	-133.094	-71.1179	-6.54854	-182.492	-108.851	0.427574	-170.36	-113.64	-27.9945	-158.422	-120.4	-49.6605	-150.333	-115.659	11.4114	-131.168	-113.174	-11.0338	-103.966	-109.692	-34.9136	-130.134	-94.8167	24.4771	-119.926	-66.3494	20.9859	-140.109	-41.6591	37.1961	-123.036	-87.2024	44.9018	-132.579	-55.4622	42.9361	-159.964	-55.3438	63.4967	-170.003	-110.325	73.0667	-185.268	-96.2851	105.546	-208.803	-91.0537	69.8498	
99	0.825	-209.682	-55.8239	53.965	-189.457	-51.7446	21.4791	-164.423	-60.3195	-1.88262	-142.389	-68.8564	-11.9218	-189.592	-109.495	-2.79978	-181.833	-113.108	-25.7316	-169.61	-119.296	-52.5428	-158.83	-115.491	9.17088	-139.228	-112.099	-18.603	-117.056	-109.176	-43.0187	-135.836	-93.6868	19.3684	-130.584	-64.6535	13.2194	-149.294	-40.9163	32.6107	-130.415	-89.5557	39.8601	-135.239	-56.0566	37.6	-160.395	-54.3307	57.1614	-172.72	-110.863	74.338	-186.865	-96.8625	101.821	-211.057	-94.0274	73.417	
100	0.833333	-215.162	-52.2118	59.0978	-197.775	-51.4508	19.9679	-174.624	-61.6094	-3.3027	-154.054	-70.7807	-17.8137	-201.713	-109.472	-0.568869	-193.533	-113.693	-25.0563	-182.58	-121.667	-54.0559	-166.432	-117.283	3.17386	-152.1	-115.021	-20.5509	-134.164	-111.346	-49.2451	-147.509	-97.6885	15.7092	-140.104	-67.8211	6.278	-155.362	-40.7755	29.4617	-132.878	-87.9675	35.0546	-142.837	-56.7629	31.0653	-165.864	-53.011	54.3058	-175.715	-110.529	72.2851	-189.425	-93.2491	103.916	-214.827	-91.6368	72.3315	
101	0.841667	-219.986	-55.4436	55.5903	-203.396	-53.2439	24.4612	-182.699	-66.0393	-2.02493	-164.826	-75.3532	-19.009	-212.565	-111.234	0.396537	-207.576	-114.759	-24.0181	-197.146	-125.454	-53.7822	-180.06	-118.756	5.88112	-162.303	-117.814	-25.102	-146.509	-116.147	-49.0994	-156.854	-100.236	10.9681	-147.341	-67.7753	2.89268	-160.841	-43.4819	23.368	-140.808	-90.924	29.7817	-149.988	-60.4471	25.2141	-170.915	-54.3495	52.7142	-181.487	-111.114	72.4521	-187.428	-95.375	100.716	-219.682	-94.9158	72.6403	
102	0.85	-225.179	-55.4683	56.5178	-210.658	-57.0664	20.6237	-191.459	-69.0156	-4.32847	-174.111	-80.4351	-21.6072	-224.363	-113.845	-0.424366	-220.37	-118.284	-24.3152	-212.336	-126.976	-48.3981	-187.859	-122.989	4.12769	-179.627	-121.85	-25.5259	-162.167	-121.526	-51.8803	-163.864	-104.286	11.1219	-158.334	-73.3875	-1.50639	-165.986	-46.5801	20.3786	-151.445	-96.4	27.2853	-159.122	-63.3078	22.1365	-175.172	-56.7692	50.314	-185.536	-112.755	71.5419	-194.032	-95.3819	99.6838	-221.705	-95.5414	75.7934	
103	0.858333	-225.213	-56.5509	59.2439	-215.44	-58.1338	24.0321	-199.768	-71.3392	-6.71479	-184.227	-84.7822	-24.2487	-230.27	-117.041	4.51724	-228.119	-122.827	-21.7951	-225.004	-131.478	-48.525	-197.989	-125.273	5.32824	-186.391	-126.21	-25.3131	-175.798	-126.315	-50.0519	-175.033	-108.005	8.63544	-166.578	-79.7635	-4.21622	-173.175	-50.2273	18.5173	-157.562	-100.128	23.1949	-164.929	-67.2704	19.4106	-181.502	-59.1612	47.9684	-190.597	-113.399	71.1014	-195.745	-96.2155	100.249	-224.745	-94.6913	77.8096	
104	0.866667	-228.811	-55.071	61.7393	-219.12	-61.4009	24.1097	-205.719	-74.9343	-7.07361	-192.205	-90.2537	-26.1363	-237.893	-118.087	7.10717	-234.633	-125.747	-20.0059	-231.866	-136.832	-45.9447	-203.659	-127.45	7.555	-195.825	-128.988	-22.4366	-183.866	-129.932	-54.0737	-178.906	-111.092	6.62137	-172.558	-85.9077	-6.03635	-178.904	-54.1605	15.0823	-163.964	-105.153	25.5535	-168.224	-71.9289	17.1514	-181.232	-59.9929	45.1542	-193.941	-116.357	73.5095	-195.211	-96.1828	106.679	-229.966	-90.908	80.4751	
105	0.875	-230.619	-57.6364	61.1804	-222.296	-59.7019	24.8961	-208.978	-78.5462	-3.10785	-199.024	-86.3478	-22.0556	-244.911	-116.422	9.75234	-240.799	-124.993	-13.7129	-242.385	-136.427	-43.3409	-214.736	-127.696	8.2234	-204.517	-130.164	-19.8786	-194.442	-132.643	-51.2068	-187.514	-115.336	11.9923	-179.119	-85.6968	-6.91868	-182.039	-54.9793	15.3469	-165.454	-106.046	23.7603	-169.734	-73.8805	15.8053	-187.212	-64.328	40.7678	-201.048	-113.551	74.1357	-199.91	-94.4784	105.679	-229.09	-93.8315	79.8059	
106	0.883333	-234.89	-53.3512	60.3365	-226.074	-56.2559	23.0933	-212.569	-77.8695	-5.26756	-200.843	-92.4004	-24.9491	-248.067	-117.371	8.36328	-248.049	-124.673	-14.9276	-246.628	-134.518	-40.7238	-215.654	-129.503	6.45149	-207.979	-130.389	-20.2744	-195.594	-134.78	-51.2726	-191.26	-116.372	11.1371	-179.313	-90.8092	-6.23847	-181.563	-60.055	11.9094	-171.467	-105.516	19.7423	-170.64	-73.3524	16.2091	-187.806	-63.7754	46.6848	-199.79	-114.823	72.8571	-199.322	-93.3718	105.763	-234.31	-89.4786	82.3848	
107	0.891667	-232.817	-52.8225	62.123	-225.887	-61.1189	22.6006	-213.837	-76.4118	-3.74767	-203.598	-90.6036	-25.0241	-251.036	-114.825	11.8928	-249.589	-123.306	-14.0245	-247.369	-133.409	-40.8255	-216.854	-128.338	6.29666	-210.131	-130.211	-23.1727	-199.293	-133.242	-48.5924	-190.593	-116.123	9.25291	-178.733	-92.3299	-7.70741	-186.021	-59.5838	10.5549	-172.068	-106.535	20.0685	-174.485	-75.0188	15.3576	-189.989	-64.9326	42.9928	-199.9	-115.144	73.7425	-199.621	-93.2296	104.752	-235.32	-91.7434	82.8531	
108	0.9	-233.528	-52.2787	62.3863	-224.45	-59.7602	25.5499	-214.594	-74.9146	-5.11981	-202.994	-86.323	-23.2437	-251.111	-114.129	11.2258	-250.586	-121.995	-14.5386	-251.801	-130.004	-43.9385	-219.561	-127.199	5.38357	-209.906	-129.109	-24.8696	-201.374	-131.295	-53.1638	-189.683	-114.106	6.19745	-179.558	-90.2766	-7.73408	-185.128	-58.7293	12.8038	-171.366	-104.478	20.3927	-173.557	-70.5382	17.2619	-190.096	-62.3754	41.4071	-202.86	-113.728	73.4544	-201.541	-95.1064	103.487	-233.037	-90.8558	80.6242	
109	0.908333	-232.223	-54.1637	61.091	-226.304	-56.0541	22.8487	-212.259	-73.3338	-3.88664	-201.739	-87.8134	-24.5657	-247.183	-113.933	8.63982	-248.791	-118.648	-13.8458	-249.052	-125.84	-40.8585	-218.036	-124.47	9.52398	-209.637	-127.767	-23.7525	-197.654	-129.364	-49.7406	-190.009	-113.201	7.74799	-179.682	-84.9656	-6.57391	-181.101	-58.1308	11.7859	-168.679	-103.642	19.7352	-175.702	-71.2105	16.3501	-187.38	-61.2511	44.7418	-200.087	-111.509	75.4909	-201.358	-93.9192	105.855	-233.964	-88.9877	83.7144	
110	0.916667	-232.224	-48.7954	62.5496	-224.14	-56.4421	21.3043	-210.546	-73.8391	-4.57097	-199.521	-87.3227	-21.5704	-246.631	-111.112	8.74245	-244.962	-118.069	-18.4849	-246.693	-123.812	-41.7197	-216.87	-122.974	5.41948	-206.129	-125.71	-24.1712	-196.787	-127.155	-56.0821	-190.321	-111.513	7.91431	-178.135	-85.63	-6.82698	-178.384	-55.3953	13.2157	-170.163	-103.59	21.0287	-172.871	-71.8457	16.6503	-187.416	-64.0957	42.4121	-198.748	-111.187	74.976	-198.864	-93.3066	105.562	-234.317	-87.8639	82.8867	
111	0.925	-229.742	-48.9138	61.7138	-220.381	-50.5936	25.9743	-209.221	-68.2304	-3.84995	-198.608	-79.7697	-24.3275	-245.622	-107.464	6.7706	-244.228	-113.713	-17.7766	-243.201	-120.743	-46.8537	-217.01	-121.062	3.65889	-204.399	-122.345	-22.8572	-193.231	-124.327	-54.7865	-186.23	-109.762	8.05743	-173.906	-84.3839	-6.71112	-176.286	-54.5178	12.9554	-165.931	-104.637	23.8522	-167.346	-70.5903	15.948	-185.761	-60.429	46.934	-201.243	-111.792	69.4892	-200.561	-92.3081	103.352	-229.779	-86.8092	82.5744	
112	0.933333	-228.713	-44.2075	61.8394	-217.321	-49.3909	23.4889	-204.957	-65.4553	-4.11588	-193.339	-77.5219	-25.7143	-244.462	-102.791	5.82377	-245.088	-107.239	-22.9605	-241.85	-115.436	-51.1544	-211.364	-118.612	6.71137	-205.871	-117.866	-23.5471	-193.832	-119.521	-52.4819	-184.654	-106.812	6.04791	-172.326	-81.9288	-6.54562	-175.105	-52.28	13.217	-165.557	-99.8104	20.3098	-167.178	-70.4869	16.6956	-183.764	-60.7504	45.7487	-198.358	-109.184	72.6085	-200.111	-92.85	100.974	-230.915	-86.7247	80.0462	
